<?xml version="1.0" encoding="utf-8"?>
<!DOCTYPE svg PUBLIC "-//W3C//DTD SVG 1.0//EN" "http://www.w3.org/TR/2001/REC-SVG-20010904/DTD/svg10.dtd">
<svg version="1.0" xmlns="http://www.w3.org/2000/svg" width="1536px" height="1024px" viewBox="0 0 1536 1024" preserveAspectRatio="xMidYMid meet">
 <g fill="#000000">
  <path d="M336.3 722.4 c-0.3 -0.9 -0.3 -80.9 0 -177.8 0.6 -156.4 1.5 -221 3.2 -235.6 2 -16.7 6.1 -30.6 15.5 -52.5 11.9 -27.5 12.2 -28.5 12.1 -36 -0.1 -6.8 2.1 -18.1 3.9 -19.9 2 -2 4.2 6.8 4.4 17.4 0.3 11.7 0.4 11.9 13.9 44 6.9 16.2 10.8 29.4 12.6 42 0.5 4.1 1.5 20.1 2 35.5 0.6 15.4 1.3 30.7 1.6 34 0.2 3.3 0.5 75.5 0.7 160.5 0.1 85 0.4 160.9 0.6 168.8 l0.4 14.2 20.2 0 20.3 0 0.6 -13.2 c0.4 -7.3 1.5 -17.5 2.7 -22.6 9.6 -44.7 39.1 -91.2 82 -129.5 54.6 -48.7 119.5 -79.2 199.7 -93.7 12.2 -2.2 15.4 -3.8 21.1 -10 2.9 -3.2 9.2 -12.6 9.2 -13.8 0 -0.5 -1.7 -1.2 -3.7 -1.6 -5.5 -0.8 -15 -5.7 -20.7 -10.4 -11.3 -9.4 -17.6 -22.9 -17.6 -37.7 0 -19.4 10 -35.5 27.5 -44.3 6.3 -3.2 14.3 -5.7 15.2 -4.8 0.3 0.3 -0.9 2.3 -2.6 4.5 -1.7 2.1 -4.6 7 -6.4 10.8 -2.9 6.2 -3.2 7.7 -3.2 16.3 0 8.2 0.4 10.3 2.7 15.2 11.5 24.6 43.1 29.2 64.6 9.4 l4.5 -4.1 -0.7 4 c-3.7 19.9 -17.3 35.2 -36.5 40.9 -3 0.9 -7 1.6 -8.8 1.6 l-3.4 0 1.7 3.3 c2.9 5.7 9 13.1 13.2 16.1 3.2 2.2 6.6 3.2 15.4 4.7 26.3 4.5 60.5 14.2 87.5 25 85.2 33.9 155.3 97.8 183.6 167.4 7.8 19 11.6 35.7 12.6 54.9 l0.6 11.9 20.4 -0.1 c11.2 -0.1 20.5 -0.3 20.7 -0.5 0.2 -0.1 0.5 -76.6 0.7 -169.8 0.5 -213.8 1.4 -239 9.5 -265.4 1.1 -3.3 6.5 -17 12.1 -30.4 9.9 -23.2 10.3 -24.5 9.7 -29.5 -0.6 -4.8 0 -9.3 2.5 -18.8 0.5 -2.1 1.4 -3.8 1.9 -3.8 0.4 0 1.8 4.1 3 9 1.7 7.3 1.9 9.8 1 12.9 -1.2 4.4 0.3 8.9 12.3 36.8 11.9 27.5 14.2 37.6 15.9 68.8 0.6 12 1.2 94.9 1.5 207.6 0.5 200 0.7 191.1 -4 189.3 -1.4 -0.5 -1.6 -20.9 -2 -189.7 -0.3 -104.1 -0.8 -192.6 -1.1 -196.7 -0.3 -4.1 -0.7 -13.1 -1 -20 -0.8 -22.2 -3.9 -32 -24.8 -81 -0.8 -1.8 -1.2 -2.1 -1.5 -1 -0.3 0.8 -4.3 10.3 -8.8 21 -14.1 33.2 -16.1 41.7 -17.5 77.4 -2.6 67.4 -3 96.8 -3.4 237 -0.3 83.5 -0.7 152 -0.9 152.2 -0.6 0.6 -49.7 1 -50.6 0.4 -0.4 -0.3 -1.1 -5.9 -1.4 -12.5 -0.4 -6.6 -0.9 -13.6 -1.2 -15.5 -6.3 -40.7 -25.4 -78.3 -58.7 -115.1 -52.7 -58.2 -126 -97.6 -213.3 -114.5 -16.9 -3.3 -19.5 -4 -23.5 -6.9 -6.3 -4.6 -10.3 -9.1 -14.3 -15.8 l-3.5 -5.7 -2.7 4.7 c-4.1 7.2 -8.9 12.7 -14.2 16.5 -4.3 3.1 -6.6 3.8 -21.8 6.7 -43.2 8.2 -76.9 19.2 -112 36.8 -37.5 18.7 -64.9 38.4 -93 66.7 -39.7 40 -62.5 80.5 -69.5 123.2 -0.6 3.9 -1.4 12.6 -1.8 19.4 l-0.7 12.3 -25.5 -0.2 c-14 -0.1 -25.5 -0.3 -25.6 -0.4 -0.1 -0.1 -0.5 -72.2 -0.8 -160.2 -0.4 -88 -1.1 -172.6 -1.6 -188 -0.5 -15.4 -1.2 -36.1 -1.5 -46 -0.6 -19.4 -2.4 -32.8 -6 -44.2 -2.9 -9.3 -19.7 -49.3 -20.6 -49.3 -0.4 0 -1.1 1 -1.5 2.3 -0.3 1.2 -4.1 10.5 -8.4 20.7 -13.3 31.3 -14.8 37.3 -16 64 -0.9 17.7 -2.7 213.6 -3.3 341 l-0.2 60.5 -2.3 0.3 c-1.4 0.2 -2.5 -0.3 -2.9 -1.4z m450.9 -296.8 c3.7 -1.3 9 -4 11.7 -6 4.9 -3.6 12.9 -13.2 11.8 -14.2 -0.3 -0.3 -1.8 0.1 -3.4 0.9 -4.8 2.5 -14.9 4 -22.8 3.4 -17.5 -1.3 -32.6 -13.3 -37.7 -30 -2.6 -8.7 -2.2 -20.8 1 -27.9 1.1 -2.7 1.7 -4.8 1.3 -4.8 -1.6 0 -8.8 5.8 -12.4 10 -19.5 22.9 -8.8 59 20.7 69.2 7.8 2.7 21.3 2.4 29.8 -0.6z"/>
 </g>
 <g fill="#ffffff">
  <path d="M0 512 l0 -512 768 0 768 0 0 512 0 512 -768 0 -768 0 0 -512z m341.7 151 c0.6 -127.4 2.4 -323.3 3.3 -341 1.2 -26.7 2.7 -32.7 16 -64 4.3 -10.2 8.1 -19.5 8.4 -20.7 0.4 -1.3 1.1 -2.3 1.5 -2.3 0.9 0 17.7 40 20.6 49.3 3.6 11.4 5.4 24.8 6 44.2 0.3 9.9 1 30.6 1.5 46 0.5 15.4 1.2 100 1.6 188 0.3 88 0.7 160.1 0.8 160.2 0.1 0.1 11.6 0.3 25.6 0.4 l25.5 0.2 0.7 -12.3 c0.4 -6.8 1.2 -15.5 1.8 -19.4 7 -42.7 29.8 -83.2 69.5 -123.2 28.1 -28.3 55.5 -48 93 -66.7 35.1 -17.6 68.8 -28.6 112 -36.8 15.2 -2.9 17.5 -3.6 21.8 -6.7 5.3 -3.8 10.1 -9.3 14.2 -16.5 l2.7 -4.7 3.5 5.7 c4 6.7 8 11.2 14.3 15.8 4 2.9 6.6 3.6 23.5 6.9 87.3 16.9 160.6 56.3 213.3 114.5 33.3 36.8 52.4 74.4 58.7 115.1 0.3 1.9 0.8 8.9 1.2 15.5 0.3 6.6 1 12.2 1.4 12.5 0.9 0.6 50 0.2 50.6 -0.4 0.2 -0.2 0.6 -68.7 0.9 -152.2 0.4 -140.2 0.8 -169.6 3.4 -237 1.4 -35.7 3.4 -44.2 17.5 -77.4 4.5 -10.7 8.5 -20.2 8.8 -21 0.3 -1.1 0.7 -0.8 1.5 1 20.9 49 24 58.8 24.8 81 0.3 6.9 0.7 15.9 1 20 0.3 4.1 0.8 92.6 1.1 196.7 0.4 168.8 0.6 189.2 2 189.7 4.7 1.8 4.5 10.7 4 -189.3 -0.3 -112.7 -0.9 -195.6 -1.5 -207.6 -1.7 -31.2 -4 -41.3 -15.9 -68.8 -12 -27.9 -13.5 -32.4 -12.3 -36.8 0.9 -3.1 0.7 -5.6 -1 -12.9 -1.2 -4.9 -2.6 -9 -3 -9 -0.5 0 -1.4 1.7 -1.9 3.8 -2.5 9.5 -3.1 14 -2.5 18.8 0.6 5 0.2 6.3 -9.7 29.5 -5.6 13.4 -11 27.1 -12.1 30.4 -8.1 26.4 -9 51.6 -9.5 265.4 -0.2 93.2 -0.5 169.7 -0.7 169.8 -0.2 0.2 -9.5 0.4 -20.7 0.5 l-20.4 0.1 -0.6 -11.9 c-1 -19.2 -4.8 -35.9 -12.6 -54.9 -28.3 -69.6 -98.4 -133.5 -183.6 -167.4 -27 -10.8 -61.2 -20.5 -87.5 -25 -8.8 -1.5 -12.2 -2.5 -15.4 -4.7 -4.2 -3 -10.3 -10.4 -13.2 -16.1 l-1.7 -3.3 3.4 0 c8.6 0 21.5 -5.8 29.3 -13.2 8.5 -8.1 13.9 -17.8 16 -29.3 l0.7 -4 -4.5 4.1 c-21.5 19.8 -53.1 15.2 -64.6 -9.4 -2.3 -4.9 -2.7 -7 -2.7 -15.2 0 -8.6 0.3 -10.1 3.2 -16.3 1.8 -3.8 4.7 -8.7 6.4 -10.8 1.7 -2.2 2.9 -4.2 2.6 -4.5 -1.9 -1.9 -18.7 5.7 -25.9 11.8 -18.6 15.5 -22.4 44.7 -8.5 64.6 7.2 10.4 19.9 19.2 30 20.8 2 0.4 3.7 1.1 3.7 1.6 0 1.2 -6.3 10.6 -9.2 13.8 -5.7 6.2 -8.9 7.8 -21.1 10 -80.2 14.5 -145.1 45 -199.7 93.7 -42.9 38.3 -72.4 84.8 -82 129.5 -1.2 5.1 -2.3 15.3 -2.7 22.6 l-0.6 13.2 -20.3 0 -20.2 0 -0.4 -14.2 c-0.2 -7.9 -0.5 -83.8 -0.6 -168.8 -0.2 -85 -0.5 -157.2 -0.7 -160.5 -0.3 -3.3 -1 -18.6 -1.6 -34 -0.5 -15.4 -1.5 -31.4 -2 -35.5 -1.8 -12.6 -5.7 -25.8 -12.6 -42 -13.5 -32.1 -13.6 -32.3 -13.9 -44 -0.2 -10.6 -2.4 -19.4 -4.4 -17.4 -1.8 1.8 -4 13.1 -3.9 19.9 0.1 7.5 -0.2 8.5 -12.1 36 -9.4 21.9 -13.5 35.8 -15.5 52.5 -1.7 14.6 -2.6 79.2 -3.2 235.6 -0.3 96.9 -0.3 176.9 0 177.8 0.4 1.1 1.5 1.6 2.9 1.4 l2.3 -0.3 0.2 -60.5z"/>
  <path d="M757.4 426.2 c-29.5 -10.2 -40.2 -46.3 -20.7 -69.2 3.6 -4.2 10.8 -10 12.4 -10 0.4 0 -0.2 2.1 -1.3 4.8 -3.2 7.1 -3.6 19.2 -1 27.9 5.1 16.7 20.2 28.7 37.7 30 7.9 0.6 18 -0.9 22.8 -3.4 1.6 -0.8 3.1 -1.2 3.4 -0.9 1.1 1 -6.9 10.6 -11.8 14.2 -10.8 7.9 -29.1 10.9 -41.5 6.6z"/>
 </g>
</svg>